# xmcd
#
# Track frame offsets: 
#        150
#        15082
#        38537
#        57975
#        75855
#
# Disc length: 1220 seconds
#
# Revision: 0
# Processed by: cddbd v1.5.2PL0 Copyright (c) Steve Scherf et al.
# Submitted via: ExactAudioCopy v1.0b3
#
DISCID=2204c205
DTITLE=Shake The Stick - Give You Up
DYEAR=1995
DGENRE=Euro-House
TTITLE0=Give You Up (Radio Edit)
TTITLE1=Give You Up (Extended Mix)
TTITLE2=Give You Up (Summer Mix)
TTITLE3=Give You Up (Extended Maxi Mix)
TTITLE4=Give You Up (Extended Radio Version)
EXTD=
EXTT0=
EXTT1=
EXTT2=
EXTT3=
EXTT4=
PLAYORDER=
